<mxfile host="app.diagrams.net" modified="2020-08-14T08:30:33.117Z" agent="5.0 (Windows NT 10.0; Win64; x64) AppleWebKit/537.36 (KHTML, like Gecko) Chrome/84.0.4147.125 Safari/537.36" etag="7l4gDDhr-rZwyAVsfdeU" version="13.6.2" type="github">
  <diagram id="6I0OCvxSQrVGMHxT2VVA" name="Page-1">
    <mxGraphModel dx="1221" dy="618" grid="1" gridSize="10" guides="1" tooltips="1" connect="1" arrows="1" fold="1" page="1" pageScale="1" pageWidth="850" pageHeight="1100" math="0" shadow="0">
      <root>
        <mxCell id="0" />
        <mxCell id="1" parent="0" />
        <mxCell id="dKdSaXE48SgPbhcamS2K-32" value="" style="whiteSpace=wrap;html=1;strokeColor=none;strokeWidth=1;fillColor=#f5f5f5;fontSize=14;" parent="1" vertex="1">
          <mxGeometry x="50" y="230" width="1010" height="240" as="geometry" />
        </mxCell>
        <mxCell id="8fXd6rmJfZfYsF0zsr3A-5" style="edgeStyle=orthogonalEdgeStyle;rounded=0;orthogonalLoop=1;jettySize=auto;html=1;entryX=0;entryY=0.5;entryDx=0;entryDy=0;entryPerimeter=0;" edge="1" parent="1" source="dKdSaXE48SgPbhcamS2K-54" target="dKdSaXE48SgPbhcamS2K-55">
          <mxGeometry relative="1" as="geometry" />
        </mxCell>
        <mxCell id="8fXd6rmJfZfYsF0zsr3A-6" style="edgeStyle=orthogonalEdgeStyle;rounded=0;orthogonalLoop=1;jettySize=auto;html=1;entryX=0;entryY=0.5;entryDx=0;entryDy=0;entryPerimeter=0;" edge="1" parent="1" source="dKdSaXE48SgPbhcamS2K-55" target="dKdSaXE48SgPbhcamS2K-56">
          <mxGeometry relative="1" as="geometry" />
        </mxCell>
        <mxCell id="8fXd6rmJfZfYsF0zsr3A-18" style="edgeStyle=orthogonalEdgeStyle;rounded=0;jumpStyle=arc;orthogonalLoop=1;jettySize=auto;html=1;exitX=0;exitY=0.75;exitDx=0;exitDy=0;exitPerimeter=0;entryX=1;entryY=0.75;entryDx=0;entryDy=0;entryPerimeter=0;strokeWidth=4;" edge="1" parent="1" source="dKdSaXE48SgPbhcamS2K-55" target="dKdSaXE48SgPbhcamS2K-54">
          <mxGeometry relative="1" as="geometry" />
        </mxCell>
        <mxCell id="dKdSaXE48SgPbhcamS2K-55" value="AWS Connect Flow" style="html=1;whiteSpace=wrap;fillColor=#ffff99;shape=mxgraph.archimate3.application;appType=collab;archiType=square;fontSize=14;" parent="1" vertex="1">
          <mxGeometry x="613" y="250" width="150" height="210" as="geometry" />
        </mxCell>
        <mxCell id="8fXd6rmJfZfYsF0zsr3A-17" style="edgeStyle=orthogonalEdgeStyle;rounded=0;jumpStyle=arc;orthogonalLoop=1;jettySize=auto;html=1;exitX=0;exitY=0.75;exitDx=0;exitDy=0;exitPerimeter=0;entryX=1;entryY=0.75;entryDx=0;entryDy=0;entryPerimeter=0;strokeWidth=4;" edge="1" parent="1" source="dKdSaXE48SgPbhcamS2K-56" target="dKdSaXE48SgPbhcamS2K-55">
          <mxGeometry relative="1" as="geometry" />
        </mxCell>
        <mxCell id="dKdSaXE48SgPbhcamS2K-56" value="AWS Lambda &lt;br&gt;Function" style="html=1;whiteSpace=wrap;fillColor=#ffff99;shape=mxgraph.archimate3.application;appType=event;archiType=rounded;fontSize=14;" parent="1" vertex="1">
          <mxGeometry x="874.5" y="250" width="150" height="210" as="geometry" />
        </mxCell>
        <mxCell id="dKdSaXE48SgPbhcamS2K-58" value="Database" style="text;html=1;strokeColor=none;fillColor=none;align=center;verticalAlign=middle;whiteSpace=wrap;fontSize=14;" parent="1" vertex="1">
          <mxGeometry x="1080" y="810" width="240" height="20" as="geometry" />
        </mxCell>
        <mxCell id="dKdSaXE48SgPbhcamS2K-59" value="API Service" style="text;html=1;strokeColor=none;fillColor=none;align=center;verticalAlign=middle;whiteSpace=wrap;fontSize=14;" parent="1" vertex="1">
          <mxGeometry x="1080" y="560" width="240" height="20" as="geometry" />
        </mxCell>
        <mxCell id="dKdSaXE48SgPbhcamS2K-60" value="Application / Business" style="text;html=1;strokeColor=none;fillColor=none;align=center;verticalAlign=middle;whiteSpace=wrap;fontSize=14;" parent="1" vertex="1">
          <mxGeometry x="1090" y="390" width="240" height="20" as="geometry" />
        </mxCell>
        <mxCell id="dKdSaXE48SgPbhcamS2K-61" style="edgeStyle=elbowEdgeStyle;rounded=1;elbow=vertical;html=1;dashed=1;startSize=10;endArrow=block;endFill=0;endSize=10;jettySize=auto;orthogonalLoop=1;strokeColor=#808080;fontSize=14;entryX=0;entryY=0.533;entryDx=0;entryDy=0;entryPerimeter=0;" parent="1" source="dKdSaXE48SgPbhcamS2K-62" target="dKdSaXE48SgPbhcamS2K-54" edge="1">
          <mxGeometry relative="1" as="geometry">
            <mxPoint x="341.5" y="380" as="targetPoint" />
            <Array as="points" />
          </mxGeometry>
        </mxCell>
        <mxCell id="dKdSaXE48SgPbhcamS2K-62" value="" style="html=1;whiteSpace=wrap;fillColor=#ffff99;shape=mxgraph.archimate3.actor;fontSize=14;" parent="1" vertex="1">
          <mxGeometry x="100" y="310" width="50" height="100" as="geometry" />
        </mxCell>
        <mxCell id="dKdSaXE48SgPbhcamS2K-63" value="3DI Engage CRM Out Flow Chart" style="text;strokeColor=none;fillColor=none;html=1;fontSize=24;fontStyle=1;verticalAlign=middle;align=center;" parent="1" vertex="1">
          <mxGeometry x="50" y="70" width="1010" height="40" as="geometry" />
        </mxCell>
        <mxCell id="8fXd6rmJfZfYsF0zsr3A-3" value="Customer" style="text;html=1;strokeColor=none;fillColor=none;align=center;verticalAlign=middle;whiteSpace=wrap;rounded=0;" vertex="1" parent="1">
          <mxGeometry x="100" y="450" width="60" height="20" as="geometry" />
        </mxCell>
        <mxCell id="8fXd6rmJfZfYsF0zsr3A-21" value="request customer details" style="text;html=1;strokeColor=none;fillColor=none;align=center;verticalAlign=middle;whiteSpace=wrap;rounded=0;" vertex="1" parent="1">
          <mxGeometry x="500.5" y="320" width="60" height="20" as="geometry" />
        </mxCell>
        <mxCell id="8fXd6rmJfZfYsF0zsr3A-22" value="request&lt;br&gt;by&amp;nbsp;&lt;br&gt;phone number" style="text;html=1;strokeColor=none;fillColor=none;align=center;verticalAlign=middle;whiteSpace=wrap;rounded=0;" vertex="1" parent="1">
          <mxGeometry x="798.5" y="282" width="60" height="60" as="geometry" />
        </mxCell>
        <mxCell id="8fXd6rmJfZfYsF0zsr3A-23" value="request" style="text;html=1;strokeColor=none;fillColor=none;align=center;verticalAlign=middle;whiteSpace=wrap;rounded=0;" vertex="1" parent="1">
          <mxGeometry x="930" y="510" width="60" height="20" as="geometry" />
        </mxCell>
        <mxCell id="8fXd6rmJfZfYsF0zsr3A-24" value="response" style="text;html=1;strokeColor=none;fillColor=none;align=center;verticalAlign=middle;whiteSpace=wrap;rounded=0;" vertex="1" parent="1">
          <mxGeometry x="821.5" y="500" width="60" height="20" as="geometry" />
        </mxCell>
        <mxCell id="8fXd6rmJfZfYsF0zsr3A-26" value="response with customer details&amp;nbsp;" style="text;html=1;strokeColor=none;fillColor=none;align=center;verticalAlign=middle;whiteSpace=wrap;rounded=0;" vertex="1" parent="1">
          <mxGeometry x="804.5" y="440" width="60" height="20" as="geometry" />
        </mxCell>
        <mxCell id="8fXd6rmJfZfYsF0zsr3A-27" value="response with Customer details" style="text;html=1;strokeColor=none;fillColor=none;align=center;verticalAlign=middle;whiteSpace=wrap;rounded=0;" vertex="1" parent="1">
          <mxGeometry x="512.5" y="430" width="60" height="20" as="geometry" />
        </mxCell>
        <mxCell id="8fXd6rmJfZfYsF0zsr3A-35" value="" style="group" vertex="1" connectable="0" parent="1">
          <mxGeometry x="50" y="700" width="1020" height="190" as="geometry" />
        </mxCell>
        <mxCell id="dKdSaXE48SgPbhcamS2K-30" value="" style="whiteSpace=wrap;html=1;strokeColor=none;strokeWidth=1;fillColor=#f5f5f5;fontSize=14;" parent="8fXd6rmJfZfYsF0zsr3A-35" vertex="1">
          <mxGeometry width="1020" height="190" as="geometry" />
        </mxCell>
        <mxCell id="8fXd6rmJfZfYsF0zsr3A-34" value="" style="group" vertex="1" connectable="0" parent="8fXd6rmJfZfYsF0zsr3A-35">
          <mxGeometry x="210" y="20" width="480" height="145" as="geometry" />
        </mxCell>
        <mxCell id="dKdSaXE48SgPbhcamS2K-33" value="" style="html=1;whiteSpace=wrap;fillColor=#AFFFAF;shape=mxgraph.archimate3.application;appType=node;archiType=square;fontSize=14;verticalAlign=top;" parent="8fXd6rmJfZfYsF0zsr3A-34" vertex="1">
          <mxGeometry width="480" height="145" as="geometry" />
        </mxCell>
        <mxCell id="8fXd6rmJfZfYsF0zsr3A-1" value="MongoDB" style="shape=cylinder2;whiteSpace=wrap;html=1;boundedLbl=1;backgroundOutline=1;size=15;" vertex="1" parent="8fXd6rmJfZfYsF0zsr3A-34">
          <mxGeometry x="378" y="32.5" width="60" height="80" as="geometry" />
        </mxCell>
        <mxCell id="8fXd6rmJfZfYsF0zsr3A-2" value="MongoDB" style="shape=cylinder2;whiteSpace=wrap;html=1;boundedLbl=1;backgroundOutline=1;size=15;" vertex="1" parent="8fXd6rmJfZfYsF0zsr3A-34">
          <mxGeometry x="138" y="33.5" width="60" height="80" as="geometry" />
        </mxCell>
        <mxCell id="8fXd6rmJfZfYsF0zsr3A-36" value="" style="group" vertex="1" connectable="0" parent="1">
          <mxGeometry x="50" y="500" width="1010" height="160" as="geometry" />
        </mxCell>
        <mxCell id="dKdSaXE48SgPbhcamS2K-31" value="" style="whiteSpace=wrap;html=1;strokeColor=none;strokeWidth=1;fillColor=#f5f5f5;fontSize=14;" parent="8fXd6rmJfZfYsF0zsr3A-36" vertex="1">
          <mxGeometry width="1010" height="160" as="geometry" />
        </mxCell>
        <mxCell id="dKdSaXE48SgPbhcamS2K-51" value="3Di EngageÂ &#xa;API Service" style="shape=component;align=center;fillColor=#99ffff;gradientColor=none;fontSize=14;" parent="8fXd6rmJfZfYsF0zsr3A-36" vertex="1">
          <mxGeometry x="484.5" y="20" width="185" height="80" as="geometry" />
        </mxCell>
        <mxCell id="8fXd6rmJfZfYsF0zsr3A-8" style="edgeStyle=orthogonalEdgeStyle;rounded=0;jumpStyle=arc;orthogonalLoop=1;jettySize=auto;html=1;strokeWidth=1;" edge="1" parent="1" source="dKdSaXE48SgPbhcamS2K-51" target="dKdSaXE48SgPbhcamS2K-30">
          <mxGeometry relative="1" as="geometry" />
        </mxCell>
        <mxCell id="8fXd6rmJfZfYsF0zsr3A-9" style="edgeStyle=orthogonalEdgeStyle;rounded=0;jumpStyle=arc;orthogonalLoop=1;jettySize=auto;html=1;entryX=0;entryY=0.3;entryDx=0;entryDy=0;strokeWidth=4;exitX=0.25;exitY=0;exitDx=0;exitDy=0;" edge="1" parent="1" source="dKdSaXE48SgPbhcamS2K-30" target="dKdSaXE48SgPbhcamS2K-51">
          <mxGeometry relative="1" as="geometry" />
        </mxCell>
        <mxCell id="8fXd6rmJfZfYsF0zsr3A-16" style="edgeStyle=orthogonalEdgeStyle;rounded=0;jumpStyle=arc;orthogonalLoop=1;jettySize=auto;html=1;entryX=0.25;entryY=1;entryDx=0;entryDy=0;entryPerimeter=0;strokeWidth=4;" edge="1" parent="1" source="dKdSaXE48SgPbhcamS2K-51" target="dKdSaXE48SgPbhcamS2K-56">
          <mxGeometry relative="1" as="geometry" />
        </mxCell>
        <mxCell id="dKdSaXE48SgPbhcamS2K-50" style="edgeStyle=elbowEdgeStyle;rounded=1;elbow=vertical;html=1;startSize=10;endArrow=open;endFill=0;endSize=10;jettySize=auto;orthogonalLoop=1;strokeColor=#808080;fontSize=14;exitX=0.5;exitY=1;exitDx=0;exitDy=0;exitPerimeter=0;" parent="1" source="dKdSaXE48SgPbhcamS2K-56" target="dKdSaXE48SgPbhcamS2K-51" edge="1">
          <mxGeometry relative="1" as="geometry">
            <Array as="points">
              <mxPoint x="840" y="590" />
              <mxPoint x="854" y="480" />
              <mxPoint x="854" y="440" />
            </Array>
          </mxGeometry>
        </mxCell>
        <mxCell id="8fXd6rmJfZfYsF0zsr3A-38" value="" style="group" vertex="1" connectable="0" parent="1">
          <mxGeometry x="270" y="250" width="150" height="210" as="geometry" />
        </mxCell>
        <mxCell id="dKdSaXE48SgPbhcamS2K-54" value="CRM Module (Client)&lt;br&gt;&lt;br&gt;&lt;br&gt;&lt;br&gt;&lt;br&gt;&lt;br&gt;" style="html=1;whiteSpace=wrap;fillColor=#ffff99;shape=mxgraph.archimate3.application;appType=func;archiType=rounded;fontSize=14;" parent="8fXd6rmJfZfYsF0zsr3A-38" vertex="1">
          <mxGeometry width="150" height="210" as="geometry" />
        </mxCell>
        <mxCell id="8fXd6rmJfZfYsF0zsr3A-30" value="" style="html=1;whiteSpace=wrap;fillColor=#ffff99;shape=mxgraph.archimate3.actor;fontSize=14;" vertex="1" parent="8fXd6rmJfZfYsF0zsr3A-38">
          <mxGeometry x="50" y="84" width="50" height="100" as="geometry" />
        </mxCell>
      </root>
    </mxGraphModel>
  </diagram>
</mxfile>
